<svg width="24" height="32" viewBox="0 0 24 32" fill="none" xmlns="http://www.w3.org/2000/svg">
<path d="M12 0.5C15.0487 0.504219 17.9712 1.71729 20.127 3.87305C22.1481 5.89423 23.3409 8.5894 23.4854 11.4307L23.5 12.001C23.4998 14.0522 22.8325 16.2656 21.7939 18.46C20.7572 20.6504 19.3643 22.792 17.9492 24.6914C15.1224 28.4856 12.2353 31.2726 12 31.498C11.7647 31.2726 8.87756 28.4856 6.05078 24.6914C4.63568 22.792 3.24283 20.6504 2.20605 18.46C1.16747 16.2656 0.500211 14.0522 0.5 12.001C0.504044 8.95205 1.71713 6.02896 3.87305 3.87305C6.02881 1.71729 8.95132 0.504219 12 0.5ZM14.2959 6.45703C13.1996 6.00293 11.993 5.88373 10.8291 6.11523C9.66534 6.34679 8.59685 6.91878 7.75781 7.75781C6.91878 8.59685 6.34679 9.66534 6.11523 10.8291C5.88373 11.993 6.00293 13.1996 6.45703 14.2959C6.91116 15.3923 7.6803 16.33 8.66699 16.9893C9.65358 17.6483 10.8135 18 12 18C13.5909 17.999 15.1163 17.3662 16.2412 16.2412C17.3662 15.1163 17.999 13.5909 18 12L17.9961 11.7783C17.9551 10.6695 17.6072 9.59204 16.9893 8.66699C16.33 7.6803 15.3923 6.91116 14.2959 6.45703Z" fill="#78C081" stroke="#577A5B"/>
</svg>
