<svg width="32" height="32" viewBox="0 0 32 32" fill="none" xmlns="http://www.w3.org/2000/svg">
<path d="M6.72754 0.5C6.81649 0.50001 6.88455 0.504545 6.93457 0.511719C6.9592 0.515253 6.97748 0.519177 6.99023 0.522461C7.00238 0.525589 7.00781 0.528322 7.00781 0.52832L7.02734 0.536133C7.03321 0.540252 7.05178 0.553109 7.08203 0.583008C7.13703 0.637417 7.20951 0.724988 7.2998 0.854492C7.4804 1.11354 7.70152 1.49758 7.96191 2.01855L7.96875 2.0332L7.97656 2.0459C8.13983 2.32758 8.36424 2.73192 8.65137 3.26074L9.4502 4.71094C9.69474 5.14605 9.9314 5.55544 10.1611 5.93848L10.1748 5.95996L10.1904 5.98047C10.229 6.03205 10.3547 6.2122 10.5771 6.53418V6.5332C10.7898 6.84119 10.9362 7.08631 11.0264 7.27344C11.1045 7.43534 11.1357 7.5779 11.1357 7.7041C11.1357 7.73882 11.1226 7.82291 11.04 7.96777C10.9789 8.07493 10.8882 8.20092 10.7627 8.3457L10.626 8.49609C10.2136 8.92991 9.76527 9.32793 9.28027 9.68945C8.75567 10.0808 8.26877 10.4971 7.82031 10.9375C7.58816 11.1656 7.39616 11.3903 7.25977 11.6104C7.12579 11.8266 7.02247 12.0749 7.02246 12.3398C7.02246 12.5604 7.08182 12.794 7.16699 13.0244C7.24452 13.2341 7.3166 13.4095 7.38184 13.54C7.44628 13.6693 7.56343 13.8689 7.72168 14.125C7.80094 14.2534 7.86183 14.3527 7.9043 14.4229C7.9256 14.458 7.94198 14.4849 7.95312 14.5039C7.96709 14.5277 7.96694 14.5276 7.96191 14.5176L7.97168 14.5371C9.14284 16.6485 10.4885 18.4673 12.0098 19.9893C13.5315 21.5103 15.3499 22.8559 17.4609 24.0273L17.4707 24.0322L17.4795 24.0361C17.47 24.0313 17.4702 24.0318 17.4941 24.0459C17.5132 24.0571 17.54 24.0734 17.5752 24.0947C17.6455 24.1373 17.7452 24.1979 17.874 24.2773V24.2764C18.1313 24.4357 18.3282 24.5521 18.4551 24.6162L18.4609 24.6191C18.5892 24.682 18.7624 24.7537 18.9736 24.832H18.9746C19.2043 24.9166 19.4383 24.9766 19.6592 24.9766C19.9239 24.9765 20.1715 24.8731 20.3877 24.7393C20.6079 24.6029 20.8332 24.4111 21.0615 24.1787C21.5016 23.7303 21.9179 23.244 22.3096 22.7188C22.6711 22.2336 23.0682 21.7846 23.502 21.3721L23.5029 21.373C23.7124 21.1741 23.8876 21.0404 24.0303 20.959C24.1752 20.8763 24.2593 20.8623 24.2939 20.8623C24.3885 20.8623 24.4921 20.8802 24.6064 20.9219L24.7246 20.9717C24.9119 21.0621 25.1568 21.2086 25.4648 21.4209C25.7876 21.6443 25.9658 21.7695 26.0166 21.8076L26.0371 21.8232L26.0596 21.8369C26.4425 22.0665 26.8518 22.3043 27.2881 22.5488V22.5479C27.7221 22.7917 28.2054 23.0589 28.7373 23.3477C29.2664 23.6352 29.6713 23.8593 29.9521 24.0225L29.9658 24.0303L29.9795 24.0371C30.5007 24.2975 30.8855 24.5176 31.1445 24.6982C31.274 24.7886 31.3607 24.862 31.415 24.917C31.4452 24.9475 31.4579 24.966 31.4619 24.9717L31.4697 24.9902C31.4697 24.9902 31.4723 24.9961 31.4756 25.0088C31.4789 25.0216 31.4828 25.0399 31.4863 25.0645C31.4934 25.1143 31.4982 25.1822 31.498 25.2715V25.2725C31.498 25.5388 31.4611 25.8826 31.3799 26.3086L31.2832 26.7627C31.1348 27.4085 30.9848 27.8929 30.8359 28.2295L30.832 28.2383C30.7135 28.5205 30.4638 28.8511 30.0342 29.2246C29.6071 29.5958 29.0236 29.9896 28.2773 30.4033C26.9162 31.1409 25.5901 31.5 24.2939 31.5C23.9072 31.5 23.5319 31.475 23.168 31.4258H23.1689C22.8108 31.3762 22.3987 31.2872 21.9297 31.1553C21.4474 31.0193 21.1001 30.9125 20.8818 30.835L19.6289 30.3721C19.0272 30.1458 18.6451 30.0051 18.4971 29.9561C17.0458 29.4366 15.7562 28.8239 14.627 28.1201L14.625 28.1191C12.7265 26.9475 10.7529 25.3417 8.70508 23.2939C6.6572 21.2459 5.05112 19.2714 3.87988 17.373L3.87891 17.3711L3.61816 16.9385C3.02083 15.9127 2.49393 14.764 2.03906 13.4902H2.03809C1.98613 13.3361 1.84739 12.9576 1.62695 12.3691L1.16406 11.1162C1.08674 10.898 0.980302 10.5506 0.844727 10.0684C0.745727 9.71667 0.671106 9.39656 0.619141 9.10742L0.575195 8.8291C0.525416 8.46599 0.500008 8.09113 0.5 7.7041C0.5 6.40753 0.858757 5.08091 1.59668 3.71973C2.01061 2.97337 2.40419 2.39105 2.77539 1.96387C3.14908 1.53389 3.47979 1.28437 3.76172 1.16602L3.76953 1.16211C4.10708 1.01337 4.59193 0.863135 5.2373 0.714844C5.87984 0.566924 6.37233 0.5 6.72754 0.5Z" fill="#78C081" stroke="#577A5B"/>
</svg>
